<svg width="42" height="42" viewBox="0 0 42 42" fill="none" xmlns="http://www.w3.org/2000/svg">
    <path fill-rule="evenodd" clip-rule="evenodd" d="M30.6 15V24.6C30.6 25.2365 30.3471 25.8469 29.897 26.297C29.447 26.7471 28.8365 27 28.2 27H22.2L16.2 31.8V27H13.8C13.1635 27 12.553 26.7471 12.1029 26.297C11.6529 25.8469 11.4 25.2365 11.4 24.6V15C11.4 14.3635 11.6529 13.753 12.1029 13.3029C12.553 12.8528 13.1635 12.6 13.8 12.6H28.2C28.8365 12.6 29.447 12.8528 29.897 13.3029C30.3471 13.753 30.6 14.3635 30.6 15ZM17.4 18.6H15V21H17.4V18.6ZM19.8 18.6H22.2V21H19.8V18.6ZM27 18.6H24.6V21H27V18.6Z" fill="white"/>
</svg>
